<svg width="25" height="25" viewBox="0 0 25 25" fill="none" xmlns="http://www.w3.org/2000/svg">
<g clip-path="url(#clip0_37_1543)">
<path d="M20.2031 0.5H4.17188C1.97137 0.5 0.1875 2.32668 0.1875 4.58V20.3816C0.1875 22.6349 1.97137 24.4616 4.17188 24.4616H20.2031C22.4036 24.4616 24.1875 22.6349 24.1875 20.3816V4.58C24.1875 2.32668 22.4036 0.5 20.2031 0.5Z" fill="#00005B"/>
<path d="M9.89184 14.8359H6.17278L5.4089 17.2391C5.39919 17.2804 5.3765 17.3173 5.34431 17.3441C5.31213 17.3709 5.27224 17.3862 5.23078 17.3875H3.33206C3.22456 17.3875 3.18699 17.327 3.21937 17.2061L6.45281 7.75775L6.49565 7.62787C6.51356 7.57286 6.53146 7.51439 6.54937 7.44412C6.59156 7.22419 6.61312 7.0006 6.61378 6.77644C6.6116 6.76077 6.61302 6.74479 6.61791 6.72978C6.6228 6.71476 6.63104 6.70112 6.64197 6.68992C6.6529 6.67873 6.66623 6.67029 6.68089 6.66528C6.69556 6.66027 6.71116 6.65882 6.72646 6.66105H9.28631C9.36131 6.66105 9.40425 6.68854 9.41512 6.74351L13.0564 17.2226C13.0886 17.3325 13.0564 17.3875 12.9598 17.3874H10.8668C10.8309 17.3915 10.7947 17.382 10.7651 17.3608C10.7355 17.3395 10.7144 17.308 10.7058 17.272L9.89184 14.8359ZM6.75871 12.8026H9.30243L9.26624 12.68L9.20793 12.4858L9.12281 12.2078L8.95921 11.683L8.51353 10.2389C8.43342 9.97947 8.35654 9.71903 8.2829 9.45763L8.20059 9.16041L8.13309 8.91398L8.05012 8.60582L8.03053 8.53257H8.0145C7.93388 8.92829 7.83575 9.32005 7.7204 9.70665L7.61165 10.0641L7.35009 10.9281L7.18162 11.4868L7.11009 11.7198L7.03903 11.9473L6.96834 12.1693C6.90035 12.3811 6.83054 12.5922 6.75871 12.8026ZM14.1833 17.2306V11.1538C14.1834 11.1124 14.1833 11.0698 14.183 11.0262L14.1818 10.8918L14.1799 10.7509L14.1754 10.5274L14.17 10.3323C14.1671 10.2381 14.1637 10.1438 14.1597 10.0497L14.1513 9.86793L14.1391 9.64252L14.129 9.4774L14.123 9.39311L14.119 9.34435C14.1128 9.32791 14.1109 9.31005 14.1138 9.29265C14.1166 9.27524 14.1239 9.25894 14.1351 9.24547C14.1482 9.23366 14.1635 9.22466 14.1801 9.21901C14.1967 9.21335 14.2143 9.21115 14.2317 9.21254H15.8389C15.8943 9.21066 15.9494 9.22193 15.9999 9.24547C16.0433 9.26841 16.0732 9.31142 16.0804 9.36086L16.1528 9.58348C16.1825 9.69256 16.2014 9.80442 16.2092 9.91737C16.5205 9.63816 16.8812 9.42271 17.2717 9.28271C17.6601 9.14501 18.0683 9.07533 18.4792 9.0766C18.7993 9.07816 19.1171 9.13102 19.4212 9.23327C19.7721 9.34819 20.0923 9.54502 20.3563 9.80824C20.6203 10.0715 20.821 10.3939 20.9426 10.7501C21.1036 11.1732 21.1667 11.7201 21.1667 12.3903V17.2306C21.1667 17.3294 21.1237 17.3789 21.0379 17.3789L19.1569 17.396C19.135 17.3992 19.1127 17.3972 19.0917 17.39C19.0707 17.3829 19.0517 17.3708 19.036 17.3548C19.0204 17.3388 19.0086 17.3193 19.0017 17.2978C18.9947 17.2764 18.9927 17.2535 18.9958 17.2311V12.6389C18.9905 12.3313 18.9244 12.0281 18.8015 11.7474C18.7151 11.5404 18.5726 11.363 18.3908 11.2363C18.1855 11.1075 17.9473 11.0443 17.7067 11.055C17.4479 11.0511 17.191 11.0988 16.95 11.1951C16.7297 11.2853 16.5277 11.4167 16.3543 11.5825V17.2306C16.3543 17.3294 16.3114 17.3789 16.2255 17.3789H14.3285C14.3088 17.3818 14.2887 17.3799 14.2699 17.3735C14.251 17.3671 14.2338 17.3562 14.2198 17.3418C14.2057 17.3274 14.1951 17.3099 14.1888 17.2906C14.1825 17.2713 14.1807 17.2507 14.1835 17.2306" fill="#9999FF"/>
</g>
<defs>
<clipPath id="clip0_37_1543">
<rect width="24" height="24" fill="white" transform="translate(0.1875 0.5)"/>
</clipPath>
</defs>
</svg>
