<svg width="25" height="25" viewBox="0 0 25 25" fill="none" xmlns="http://www.w3.org/2000/svg">
<g clip-path="url(#clip0_37_1549)">
<path d="M18.4375 0.5H5.6875C2.5809 0.5 0.0625 3.0184 0.0625 6.125V18.875C0.0625 21.9816 2.5809 24.5 5.6875 24.5H18.4375C21.5441 24.5 24.0625 21.9816 24.0625 18.875V6.125C24.0625 3.0184 21.5441 0.5 18.4375 0.5Z" fill="#0277BD"/>
<path d="M5.10184 10.1235L5.37016 13.1181H12.0715V10.1235H5.10184ZM12.0714 4.0625H4.5625L4.83475 7.05706H12.0714V4.0625ZM12.0714 21.0163V17.9008L12.0583 17.9042L8.72322 17.0037L8.51003 14.6154H5.50394L5.92347 19.3173L12.0576 21.0202L12.0714 21.0163Z" fill="#EBEBEB"/>
<path d="M15.7485 13.1181L15.4009 17.0018L12.061 17.9033V21.0187L18.2001 19.3173L18.2451 18.8113L18.9488 10.9277L19.0218 10.1235L19.5624 4.0625H12.061V7.05706H16.2806L16.0082 10.1235H12.061V13.1181H15.7485Z" fill="white"/>
</g>
<defs>
<clipPath id="clip0_37_1549">
<rect width="24" height="24" fill="white" transform="translate(0.0625 0.5)"/>
</clipPath>
</defs>
</svg>
