<svg width="25" height="25" viewBox="0 0 25 25" fill="none" xmlns="http://www.w3.org/2000/svg">
<g clip-path="url(#clip0_37_1547)">
<path d="M19.3125 0.5H6.5625C3.4559 0.5 0.9375 3.0184 0.9375 6.125V18.875C0.9375 21.9816 3.4559 24.5 6.5625 24.5H19.3125C22.4191 24.5 24.9375 21.9816 24.9375 18.875V6.125C24.9375 3.0184 22.4191 0.5 19.3125 0.5Z" fill="#E14E1D"/>
<path d="M5.4375 4.0625L6.24469 13.1181H16.6238L16.2755 17.0022L12.9337 17.9057L9.59812 17.0035L9.37509 14.5095H6.36937L6.79922 19.3171L12.933 21.0208L19.0746 19.3171L19.898 10.1239H8.9835L8.70947 7.05734H20.1693L20.4375 4.0625H5.4375Z" fill="white"/>
<path d="M12.9375 4.0625H5.4375L6.24469 13.1181H12.9375V10.1239H8.9835L8.70947 7.05734H12.9375V4.0625ZM12.9375 17.9044L12.9337 17.9057L9.59812 17.0035L9.37509 14.5095H6.36937L6.79922 19.3171L12.933 21.0208L12.9376 21.0194L12.9375 17.9044Z" fill="#EBEBEB"/>
</g>
<defs>
<clipPath id="clip0_37_1547">
<rect width="24" height="24" fill="white" transform="translate(0.9375 0.5)"/>
</clipPath>
</defs>
</svg>
