<svg width="25" height="25" viewBox="0 0 25 25" fill="none" xmlns="http://www.w3.org/2000/svg">
<g clip-path="url(#clip0_37_1539)">
<path d="M19.3125 0.5H6.5625C3.4559 0.5 0.9375 3.0184 0.9375 6.125V18.875C0.9375 21.9816 3.4559 24.5 6.5625 24.5H19.3125C22.4191 24.5 24.9375 21.9816 24.9375 18.875V6.125C24.9375 3.0184 22.4191 0.5 19.3125 0.5Z" fill="#330000"/>
<path d="M12.5374 14.7812H8.81741L8.05738 17.1312C8.03741 17.2212 7.95744 17.2812 7.86744 17.2712H5.98738C5.87741 17.2712 5.84741 17.2112 5.87741 17.0912L9.09744 7.82116C9.12744 7.72122 9.15744 7.61116 9.19738 7.49116C9.23741 7.28116 9.25738 7.06122 9.25738 6.84119C9.24744 6.79122 9.28738 6.74116 9.33744 6.73122H11.9274C12.0074 6.73122 12.0474 6.76122 12.0574 6.81119L15.7074 17.1112C15.7374 17.2212 15.7074 17.2712 15.6074 17.2712H13.5174C13.4474 17.2812 13.3774 17.2312 13.3574 17.1612L12.5374 14.7812ZM9.39744 12.7512H11.9374C11.8774 12.5412 11.7974 12.2912 11.7074 12.0312C11.6174 11.7612 11.5274 11.4712 11.4374 11.1712C11.3374 10.8612 11.2474 10.5612 11.1474 10.2512C11.0474 9.94122 10.9574 9.65116 10.8774 9.36119C10.7974 9.08125 10.7274 8.82119 10.6574 8.58119H10.6374C10.5474 9.01122 10.4374 9.44125 10.2974 9.87119C10.1474 10.3512 9.99744 10.8512 9.83741 11.3512C9.70829 11.8232 9.56153 12.2902 9.39744 12.7512ZM17.9374 8.48116C17.6074 8.49119 17.2874 8.36116 17.0474 8.13119C16.8175 7.88116 16.6975 7.55116 16.7074 7.21122C16.6975 6.87119 16.8274 6.55122 17.0674 6.32116C17.3074 6.0911 17.6275 5.97119 17.9575 5.97119C18.3475 5.97119 18.6475 6.09119 18.8674 6.32116C19.0891 6.56359 19.2075 6.88289 19.1974 7.21122C19.2074 7.55116 19.0874 7.88116 18.8474 8.13119C18.6175 8.37119 18.2774 8.50122 17.9374 8.48116ZM16.8175 17.1612V9.46122C16.8175 9.36119 16.8574 9.32116 16.9474 9.32116H18.9274C19.0174 9.32116 19.0574 9.37122 19.0574 9.46122V17.1612C19.0574 17.2712 19.0174 17.3212 18.9274 17.3212H16.9675C16.8674 17.3212 16.8175 17.2612 16.8175 17.1612Z" fill="#FF9A00"/>
</g>
<defs>
<clipPath id="clip0_37_1539">
<rect width="24" height="24" fill="white" transform="translate(0.9375 0.5)"/>
</clipPath>
</defs>
</svg>
