<svg width="25" height="25" viewBox="0 0 25 25" fill="none" xmlns="http://www.w3.org/2000/svg">
<g clip-path="url(#clip0_37_1541)">
<path d="M4.31256 0.800049H19.8124C22.1626 0.800049 24.0625 2.69999 24.0625 5.05011V19.95C24.0625 22.3001 22.1626 24.2001 19.8124 24.2001H4.31256C1.96244 24.2001 0.0625 22.3001 0.0625 19.95V5.05011C0.0625 2.69999 1.96244 0.800049 4.31256 0.800049Z" fill="#001E36"/>
<path d="M8.66259 6.74988C8.36259 6.74988 8.06259 6.74988 7.75265 6.76C7.44252 6.76994 7.15246 6.76994 6.88246 6.78007C6.61246 6.79 6.36252 6.79 6.12252 6.79994C5.89246 6.80988 5.73252 6.80988 5.56246 6.80988C5.49252 6.80988 5.46252 6.84982 5.46252 6.91994V17.2099C5.46252 17.2999 5.50246 17.3401 5.58252 17.3401H7.52259C7.59252 17.3299 7.64259 17.2699 7.63246 17.2V13.99C7.8224 13.99 7.96246 13.99 8.06259 13.9999C8.16252 14.0099 8.32246 14.0099 8.56246 14.0099C9.38259 14.0099 10.1326 13.9199 10.8125 13.6699C11.4625 13.4299 12.0226 13.0099 12.4225 12.4499C12.8225 11.8899 13.0225 11.1799 13.0225 10.3199C13.0225 9.86988 12.9426 9.43994 12.7926 9.01994C12.6337 8.59205 12.3847 8.20328 12.0625 7.87994C11.6822 7.5105 11.2245 7.23035 10.7225 7.05982C10.1624 6.84982 9.48252 6.74988 8.66259 6.74988ZM8.88571 8.71957C9.24196 8.72632 9.58884 8.78856 9.91246 8.91981C10.2025 9.02988 10.4425 9.22994 10.6126 9.48981C10.7721 9.75877 10.8519 10.0675 10.8426 10.3801C10.8426 10.8199 10.7425 11.1601 10.5325 11.41C10.3124 11.6599 10.0325 11.8501 9.71259 11.9401C9.34246 12.0601 8.95246 12.1199 8.56246 12.1199H8.0324C7.9124 12.1199 7.78265 12.1099 7.64259 12.1V8.74C7.71252 8.72988 7.85259 8.71994 8.05265 8.73007C8.24259 8.71994 8.47246 8.71994 8.73252 8.71994C8.78377 8.71869 8.83484 8.71857 8.88571 8.71957ZM17.2726 9.23013C16.5625 9.23013 15.9725 9.34 15.5026 9.58C15.0726 9.78006 14.7025 10.0999 14.4526 10.4999C14.2326 10.87 14.1125 11.2799 14.1125 11.71C14.1039 12.0638 14.1829 12.4142 14.3425 12.73C14.5295 13.0663 14.7892 13.3567 15.1026 13.5799C15.5425 13.8808 16.0199 14.1229 16.5226 14.2999C17.0125 14.4899 17.3425 14.6399 17.5027 14.7698C17.6626 14.8999 17.7427 15.0299 17.7427 15.1699C17.7427 15.3499 17.6326 15.52 17.4726 15.5899C17.2926 15.6799 17.0226 15.73 16.6426 15.73C16.2427 15.73 15.8425 15.6799 15.4625 15.58C15.0261 15.4825 14.6077 15.3172 14.2225 15.0901C14.1925 15.07 14.1625 15.0601 14.1325 15.0801C14.1025 15.1 14.0926 15.1399 14.0926 15.1699V16.9099C14.0827 16.99 14.1325 17.0599 14.2027 17.0999C14.5269 17.2514 14.8699 17.359 15.2226 17.4199C15.6726 17.5099 16.1225 17.5499 16.5824 17.5499C17.3024 17.5499 17.9026 17.44 18.3925 17.23C18.8425 17.05 19.2325 16.7401 19.5125 16.3399C19.7746 15.9466 19.9107 15.4827 19.9025 15.01C19.9123 14.6529 19.8333 14.299 19.6726 13.9801C19.4825 13.6399 19.2125 13.36 18.8825 13.15C18.3997 12.8468 17.8828 12.6018 17.3425 12.4199C17.1013 12.32 16.8644 12.2099 16.6325 12.0899C16.5025 12.0199 16.3825 11.9299 16.2925 11.8199C16.2325 11.7398 16.1926 11.65 16.1926 11.56C16.1926 11.47 16.2226 11.3701 16.2725 11.29C16.3426 11.1901 16.4525 11.1199 16.5824 11.0899C16.7725 11.0401 16.9825 11.0099 17.1824 11.0198C17.5625 11.0198 17.9324 11.0699 18.3025 11.1499C18.6426 11.2199 18.9625 11.3299 19.2625 11.4901C19.3025 11.5099 19.3525 11.5099 19.4425 11.4901C19.4581 11.4785 19.4708 11.4634 19.4795 11.446C19.4882 11.4286 19.4927 11.4094 19.4926 11.3899V9.76C19.4926 9.71988 19.4825 9.67994 19.4725 9.64C19.4525 9.60007 19.4125 9.55994 19.3726 9.55C19.0968 9.43727 18.8078 9.35997 18.5125 9.31994C18.1019 9.26015 17.6875 9.23026 17.2726 9.23013Z" fill="#31A8FF"/>
</g>
<defs>
<clipPath id="clip0_37_1541">
<rect width="24" height="24" fill="white" transform="translate(0.0625 0.5)"/>
</clipPath>
</defs>
</svg>
