<svg width="25" height="25" viewBox="0 0 25 25" fill="none" xmlns="http://www.w3.org/2000/svg">
<g clip-path="url(#clip0_37_1545)">
<path d="M20.9399 0.877304L19.6435 0.958116L19.7446 3.6538C19.7498 3.80287 19.5779 3.88987 19.4607 3.79743L18.5926 3.11305L17.5642 3.89343C17.5377 3.91354 17.506 3.92569 17.4729 3.92847C17.4397 3.93125 17.4065 3.92454 17.377 3.90912C17.3476 3.8937 17.3231 3.87021 17.3065 3.8414C17.2899 3.81259 17.2818 3.77965 17.2833 3.74643L17.399 1.09837L4.53872 1.90255C4.2328 1.92162 3.94646 2.05951 3.74082 2.2868C3.53518 2.51409 3.42654 2.81276 3.43809 3.11905L4.16184 22.4012C4.17289 22.6958 4.29433 22.9755 4.50205 23.1847C4.70977 23.3939 4.98857 23.5173 5.28309 23.5305L20.9603 24.2344C21.1188 24.2414 21.2771 24.2163 21.4256 24.1605C21.5741 24.1048 21.7098 24.0196 21.8245 23.91C21.9392 23.8004 22.0306 23.6687 22.0929 23.5229C22.1553 23.377 22.1875 23.22 22.1875 23.0614V2.04955C22.1876 1.88912 22.1548 1.73038 22.0911 1.58313C22.0274 1.43588 21.9342 1.30325 21.8172 1.19343C21.7003 1.08359 21.5622 0.998872 21.4113 0.944501C21.2604 0.89013 21.1 0.86726 20.9399 0.877304ZM13.1662 4.84987C16.2239 4.84987 17.8938 6.48543 17.8938 9.59718C17.4805 9.91837 14.4025 10.1372 14.4025 9.68024C14.4674 7.93649 13.6868 7.86018 13.2532 7.86018C12.841 7.86018 12.1471 7.9843 12.1471 8.91843C12.1471 11.2224 18.089 11.0981 18.089 15.7479C18.089 18.3636 15.9637 19.8082 13.2532 19.8082C10.4557 19.8082 8.01122 18.6765 8.28722 14.7527C8.39559 14.292 11.9519 14.4015 11.9519 14.7527C11.9088 16.3717 12.2772 16.848 13.2095 16.848C13.9252 16.848 14.2507 16.4537 14.2507 15.7894C14.2507 13.4229 8.39559 13.3401 8.39559 9.00168C8.39559 6.51074 10.1088 4.84987 13.1662 4.84987Z" fill="#FF4785"/>
</g>
<defs>
<clipPath id="clip0_37_1545">
<rect width="24" height="24" fill="white" transform="translate(0.8125 0.5)"/>
</clipPath>
</defs>
</svg>
