<svg width="25" height="25" viewBox="0 0 25 25" fill="none" xmlns="http://www.w3.org/2000/svg">
<g clip-path="url(#clip0_37_1551)">
<path d="M4.43811 9.3125H23.1262V23.1256H4.43811V9.3125Z" fill="white"/>
<path d="M0.46875 12.4832V20.2019C0.46875 22.411 2.25961 24.2019 4.46875 24.2019H19.9062C22.1154 24.2019 23.9062 22.411 23.9062 20.2019V4.7644C23.9062 2.55527 22.1154 0.764404 19.9062 0.764404H4.46875C2.25961 0.764404 0.46875 2.55527 0.46875 4.7644V12.4832ZM19.3556 11.5476C19.3556 11.5466 19.3565 11.5459 19.3575 11.5461C19.9181 11.6766 20.4276 11.97 20.8219 12.3894C21.2484 12.8335 21.1288 13.3381 20.6163 13.6794C20.3274 13.8718 20.0079 14.0794 19.755 14.2363C19.7325 14.2513 19.6425 14.1538 19.5431 14.0057C19.4305 13.8113 19.2705 13.6487 19.078 13.533C18.8856 13.4172 18.6669 13.3522 18.4425 13.3438C17.7319 13.295 17.2744 13.6682 17.2781 14.2813C17.2724 14.4339 17.3074 14.5853 17.3794 14.72C17.535 15.0444 17.8256 15.2375 18.7369 15.6313C20.415 16.3532 21.1331 16.8294 21.5794 17.5063C22.0781 18.2563 22.1887 19.4675 21.8512 20.3638C21.4762 21.3388 20.5575 22.0007 19.2581 22.22C18.6647 22.288 18.065 22.2817 17.4731 22.2013C16.5659 22.0517 15.7303 21.6162 15.0881 20.9582C14.9498 20.8054 14.7273 20.4951 14.5925 20.2804C14.5028 20.1376 14.5455 19.9969 14.6944 19.9175L15.5625 19.4375L16.0183 19.1735C16.1407 19.1025 16.2971 19.1385 16.3762 19.2557C16.6137 19.5951 16.9157 19.8843 17.265 20.1069C18.015 20.5007 19.0387 20.4463 19.545 19.9907C19.715 19.8237 19.821 19.6024 19.8447 19.3653C19.8683 19.1283 19.808 18.8904 19.6744 18.6932C19.4869 18.4325 19.1119 18.2132 18.0637 17.7557C16.8544 17.2344 16.3331 16.9119 15.8569 16.3982C15.5597 16.0591 15.3402 15.6591 15.2137 15.2263C15.1195 14.7317 15.1056 14.2253 15.1725 13.7263C15.4219 12.5582 16.2975 11.7425 17.5763 11.5007C18.1679 11.4276 18.7671 11.4439 19.3538 11.5491C19.3548 11.5492 19.3556 11.5485 19.3556 11.5476ZM13.8544 12.5282C13.8544 13.0583 13.4246 13.4882 12.8944 13.4882H12.3328C11.4925 13.4882 10.8112 14.1694 10.8112 15.0097V21.0772C10.8112 21.6732 10.3281 22.1563 9.73219 22.1563C9.13624 22.1563 8.65313 21.6732 8.65313 21.0772V15.0116C8.65313 14.1692 7.97022 13.4863 7.12781 13.4863H6.54C6.02223 13.4863 5.6025 13.0665 5.6025 12.5488C5.58388 11.9197 5.96514 11.5679 6.59445 11.5655C7.35431 11.5625 8.49111 11.5625 9.75 11.5625H12.8774C13.4126 11.5625 13.8481 11.993 13.8544 12.5282Z" fill="#007ACC"/>
</g>
<defs>
<clipPath id="clip0_37_1551">
<rect width="24" height="24" fill="white" transform="translate(0.1875 0.5)"/>
</clipPath>
</defs>
</svg>
